<?xml version="1.0" standalone="no"?>
<!DOCTYPE svg PUBLIC "-//W3C//DTD SVG 20010904//EN"
 "http://www.w3.org/TR/2001/REC-SVG-20010904/DTD/svg10.dtd">
<svg version="1.0" xmlns="http://www.w3.org/2000/svg"
 width="32.000000pt" height="32.000000pt" viewBox="0 0 32.000000 32.000000"
 preserveAspectRatio="xMidYMid meet">
<metadata>
Created by potrace 1.16, written by Peter Selinger 2001-2019
</metadata>
<g transform="translate(0.000000,32.000000) scale(0.051613,-0.051613)"
fill="#000000" stroke="none">
<path d="M0 310 l0 -310 310 0 310 0 0 310 0 310 -310 0 -310 0 0 -310z m238
120 c22 -14 32 -27 32 -45 0 -32 -11 -32 -38 0 -25 29 -54 32 -73 9 -19 -23
-2 -43 55 -65 63 -24 66 -27 68 -79 1 -36 -3 -47 -26 -67 -57 -48 -146 -19
-146 49 0 36 8 35 44 -3 35 -37 79 -38 84 -1 5 31 -10 46 -57 60 -38 12 -71
47 -71 76 0 27 22 64 44 74 31 16 48 14 84 -8z m208 -1 c24 -14 34 -28 34 -45
0 -31 -11 -30 -38 1 -25 29 -54 32 -73 9 -18 -22 -2 -44 47 -61 54 -19 67 -35
71 -87 3 -39 0 -47 -26 -65 -61 -44 -141 -14 -141 51 0 36 9 35 42 -2 26 -30
51 -37 76 -21 22 14 10 54 -20 68 -16 7 -40 19 -55 26 -37 17 -47 38 -39 80 5
26 15 41 34 52 36 19 49 19 88 -6z"/>
</g>
</svg>
